<svg width="46" height="53" viewBox="0 0 46 53" fill="none" xmlns="http://www.w3.org/2000/svg">
<path d="M44.5878 34.7177C43.9857 31.9712 41.5768 30.1403 39.9207 29.0941C40.9747 27.3939 42.7812 24.2552 42.0284 22.8166C41.878 22.2934 41.5768 22.1627 41.1252 22.1627C40.6735 22.1627 39.9207 22.4242 39.0174 22.6858C39.1681 22.1627 39.6198 20.0702 39.4691 17.7161C39.4691 17.7161 41.1252 17.4545 42.9317 18.7623C42.9317 12.8772 37.9637 9.34614 37.9637 9.34614C37.9637 9.34614 40.523 8.56147 42.1791 9.08459C36.9097 2.02239 28.0274 3.98412 28.0274 3.98412C28.0274 3.98412 27.8769 2.0224 29.9846 1.10693C11.1659 1.10693 10.5637 12.6157 10.5637 12.6157C10.5637 12.6157 9.05824 11.3079 8.30548 9.47692C6.34836 13.4004 7.85384 22.0319 8.00439 22.555C7.25164 22.2934 6.4989 22.0319 5.8967 22.0319C5.2945 22.0319 5.14396 22.2934 4.9934 22.8166C4.24066 24.2552 6.04726 27.3939 7.1011 29.0941C5.44506 30.1403 3.03628 31.8405 2.43408 34.7177C2.43408 34.7177 4.09012 34.3253 5.5956 34.1945C4.54176 37.5948 3.78902 42.1722 6.04726 45.3109C6.64944 44.3955 8.15494 43.2184 8.15494 43.2184C9.05824 44.5262 14.1769 48.3189 19.5967 49.7575C21.1021 50.5422 22.1561 50.9345 22.3066 50.9345L23.511 51.3269L24.7154 50.9345C24.8659 50.9345 25.9197 50.5422 27.4253 49.7575C32.845 48.3189 37.9637 44.5262 38.867 43.2184C38.867 43.2184 40.3724 44.5262 40.9747 45.3109C43.2329 42.1722 42.4801 37.5948 41.4263 34.1945C42.9317 34.3253 44.5878 34.7177 44.5878 34.7177Z" fill="#474747"/>
<path fill-rule="evenodd" clip-rule="evenodd" d="M35.1034 26.871C35.1034 23.4707 30.8882 22.2936 28.1783 23.7322C26.8232 24.5169 25.4683 25.4324 23.5112 25.4324C21.554 25.4324 20.3498 24.5169 18.8442 23.7322C16.1343 22.2936 11.9189 23.4707 11.9189 26.871C11.9189 30.2713 16.1343 32.7561 15.6827 32.7561C9.51016 43.3494 23.5112 48.3191 23.5112 48.3191C23.5112 48.3191 37.5123 43.3494 31.3398 32.7561C31.0387 32.7561 35.1034 30.1405 35.1034 26.871Z" fill="#8C8C8C"/>
<path d="M23.5111 52.373L21.855 51.7191C21.7046 51.7191 20.6506 51.3268 19.1452 50.5421C14.4781 49.2343 10.1122 46.4879 8.15507 44.6569C7.70341 45.0493 7.40231 45.4416 7.10121 45.7032L6.19793 47.2725L5.14409 45.834C2.88585 42.826 3.18695 38.7718 3.93969 35.3715C3.18695 35.5022 2.73529 35.633 2.73529 35.633L0.928711 36.0254L1.22981 34.456C1.83201 31.8404 3.78915 29.8786 5.59573 28.7016C3.33749 24.7782 3.48805 23.2088 3.78915 22.4241C4.09023 21.3779 5.14409 20.8547 6.49903 21.1163C6.19793 18.2391 5.59573 12.354 7.25177 9.21524L8.30561 6.99196L9.35945 9.21524C9.51001 9.60758 9.81109 9.86914 9.96165 10.2615C11.3166 6.59961 15.6825 0.0605469 29.8341 0.0605469H34.3507L30.2857 2.02227C29.8341 2.28383 29.5331 2.54539 29.232 2.80696C32.3934 2.67618 38.7166 3.06852 42.7814 8.56133L44.5879 11.0462L41.2758 9.99993C40.9748 9.86914 40.3725 9.86914 39.7704 9.86914C41.4264 11.4385 43.5342 14.4465 43.5342 18.6315V20.724L41.5769 19.2854C40.9748 18.893 40.5232 18.7622 40.0715 18.6315C40.0715 19.5469 40.0715 20.3316 39.9208 20.9855C41.2758 20.724 42.1791 21.2471 42.6309 22.2933C43.0825 23.078 43.233 24.6474 40.9748 28.5708C42.7814 29.7479 44.7384 31.5788 45.3407 34.3252L45.6417 35.8946L43.8351 35.5022C43.8351 35.5022 43.3835 35.3715 42.6309 35.2407C43.3835 38.5102 43.6846 42.6952 41.5769 45.5724L40.5232 47.011L39.6199 45.4416C39.4692 45.18 39.0176 44.7877 38.7166 44.3954C36.7594 46.2263 32.3934 49.1035 27.5759 50.2805C26.0705 51.0652 25.0165 51.4575 24.866 51.4575L23.5111 52.373ZM8.45615 41.3874L9.20891 42.5644C9.96165 43.6107 14.7792 47.2725 20.0485 48.7111L20.3494 48.8419C21.7046 49.6266 22.7583 50.019 22.9088 50.019L23.6616 50.2805L24.4144 50.019C24.4144 50.019 25.4682 49.6266 26.9738 48.8419L27.2747 48.7111C32.5439 47.4033 37.3615 43.6107 38.1143 42.5644L38.8671 41.3874L39.9208 42.3029C40.0715 42.4336 40.5232 42.6952 40.9748 43.2183C42.0286 40.4719 41.4264 36.9408 40.5232 34.3252L40.0715 32.8866L41.8781 33.1482C42.1791 33.1482 42.6309 33.279 43.0825 33.279C42.1791 31.7096 40.6736 30.6633 39.4692 30.0094L38.5659 29.4863L39.0176 28.7016C41.5769 24.5166 41.1253 23.4704 41.1253 23.3396C40.6736 23.4704 40.0715 23.6011 39.6199 23.7319L37.0605 24.3858L37.8131 22.4241C37.9638 22.0318 38.4154 20.07 38.2648 17.716V16.8005L39.3187 16.6697C39.4692 16.6697 40.3725 16.539 41.5769 16.9313C40.8241 12.7463 37.211 10.2615 37.211 10.1307L35.5549 8.95368L37.6626 8.43055C37.8131 8.43055 38.7166 8.16899 39.7704 8.03821C35.1033 3.59164 28.6296 4.89946 28.3287 5.03024L26.9738 5.2918V4.11477C26.9738 4.11477 26.9738 3.1993 27.4254 2.28383C12.3704 3.1993 11.7682 12.354 11.7682 12.7463L11.6177 15.1004L9.66055 13.4002C9.66055 13.4002 9.20891 13.0079 8.60671 12.354C8.00451 16.4082 8.90781 22.0318 9.05835 22.5549L9.66055 24.5166L7.55287 23.6011C7.10121 23.4704 6.49903 23.2088 6.04737 23.2088C6.04737 23.3396 5.59573 24.3858 8.15507 28.5708L8.60671 29.3555L7.70341 29.8786C6.49903 30.5325 4.99353 31.7096 4.09023 33.1482C4.39133 33.1482 4.84299 33.0174 5.29463 33.0174L7.10121 32.7558L6.64957 34.1944C5.74627 36.81 5.14409 40.3411 6.19793 43.0875C6.64957 42.5644 7.10121 42.1721 7.25177 42.1721L8.45615 41.3874Z" fill="#BEC0B5"/>
</svg>
