<svg width="45" height="32" viewBox="0 0 45 32" fill="none" xmlns="http://www.w3.org/2000/svg">
<rect x="0.141602" width="44" height="32" rx="2" fill="white"/>
<g clip-path="url(#clip0_61439_91)">
<path d="M17.8877 21.2049V14.323C17.8877 13.0568 19.0094 12.0303 20.393 12.0303L22.6133 12.0333C23.993 12.0358 25.11 13.0601 25.11 14.3227V15.7875C25.11 17.0538 23.9883 18.0803 22.6046 18.0803H19.4672" stroke="#939598" stroke-miterlimit="10" stroke-linecap="round" stroke-linejoin="round"/>
<path d="M25.7305 12.0293H26.6936C27.2615 12.0293 27.7217 12.4506 27.7217 12.9702V18.111" stroke="#939598" stroke-miterlimit="10" stroke-linecap="round" stroke-linejoin="round"/>
<path d="M27.5152 11.2329L27.0784 10.8332C26.97 10.734 26.97 10.5732 27.0784 10.474L27.5149 10.0745C27.6235 9.97517 27.7994 9.97517 27.9079 10.0745L28.3444 10.474C28.4528 10.5732 28.4528 10.734 28.3444 10.8332L27.9076 11.2329C27.7993 11.3321 27.6236 11.3321 27.5152 11.2329Z" fill="#32A2BC"/>
<path d="M29.5693 12.0247H30.5245C31.0159 12.0247 31.4871 12.2033 31.8345 12.5212L34.0686 14.5658C34.358 14.8306 34.8272 14.8306 35.1166 14.5658L37.3426 12.5287C37.69 12.2108 38.1612 12.0321 38.6526 12.0321H39.4292" stroke="#939598" stroke-miterlimit="10" stroke-linecap="round" stroke-linejoin="round"/>
<path d="M29.5693 18.0662H30.5245C31.0159 18.0662 31.4871 17.8875 31.8345 17.5696L34.0686 15.5251C34.358 15.2602 34.8272 15.2602 35.1166 15.5251L37.3426 17.5621C37.69 17.88 38.1612 18.0587 38.6526 18.0587H39.4292" stroke="#939598" stroke-miterlimit="10" stroke-linecap="round" stroke-linejoin="round"/>
<path d="M12.1929 19.3722C11.7135 19.3722 11.2626 19.2014 10.9236 18.8913L9.09096 17.2141C8.96228 17.0961 8.73803 17.0964 8.6094 17.2141L6.77005 18.8975C6.43106 19.2075 5.98018 19.3784 5.50081 19.3784H5.13965L7.46078 21.5025C8.18565 22.1658 9.36096 22.1658 10.0859 21.5025L12.4136 19.3722H12.1929Z" fill="#32A2BC"/>
<path d="M5.50071 13.44C5.98007 13.44 6.43095 13.6108 6.76995 13.9209L8.6093 15.6044C8.74177 15.7257 8.95806 15.7262 9.09086 15.6043L10.9235 13.927C11.2625 13.6169 11.7134 13.4461 12.1927 13.4461H12.4135L10.0858 11.3159C9.36084 10.6525 8.18554 10.6525 7.46067 11.3159L5.13965 13.44L5.50071 13.44Z" fill="#32A2BC"/>
<path d="M14.3391 15.2079L12.9324 13.9207C12.9014 13.932 12.8679 13.9391 12.8325 13.9391H12.1929C11.8623 13.9391 11.5386 14.0618 11.305 14.2758L9.47235 15.9529C9.30085 16.1099 9.0755 16.1884 8.85037 16.1884C8.62501 16.1884 8.39982 16.1099 8.22838 15.9531L6.38886 14.2697C6.15521 14.0556 5.83153 13.933 5.50089 13.933H4.71448C4.68093 13.933 4.64959 13.9257 4.62 13.9155L3.20776 15.2079C2.48283 15.8713 2.48283 16.9469 3.20776 17.6103L4.61994 18.9026C4.64959 18.8924 4.68093 18.8852 4.71448 18.8852H5.50089C5.83153 18.8852 6.15521 18.7625 6.38886 18.5485L8.22821 16.8653C8.56067 16.5613 9.14022 16.5612 9.47235 16.8654L11.305 18.5424C11.5386 18.7564 11.8623 18.8791 12.1929 18.8791H12.8325C12.8679 18.8791 12.9014 18.8862 12.9324 18.8975L14.3391 17.6103C15.0639 16.9469 15.0639 15.8713 14.3391 15.2079" fill="#32A2BC"/>
</g>
<defs>
<clipPath id="clip0_61439_91">
<rect width="37" height="12" fill="white" transform="translate(2.66406 10)"/>
</clipPath>
</defs>
</svg>
